<svg width="183" height="184" viewBox="0 0 183 184" fill="none" xmlns="http://www.w3.org/2000/svg">
<g clip-path="url(#clip0_1_21)">
<g clip-path="url(#clip1_1_21)">
<path d="M146.4 110.435H128.1V73.8351H146.4C166.612 73.8351 183 57.4475 183 37.2351C183 17.0228 166.612 0.635132 146.4 0.635132C126.185 0.635132 109.8 17.0228 109.8 37.2351V55.5351H73.2V37.2351C73.2 17.0228 56.8123 0.635132 36.6 0.635132C16.3876 0.635132 0 17.0228 0 37.2351C0 57.4475 16.3876 73.8351 36.6 73.8351H54.9V110.435H36.6C16.3876 110.435 0 126.823 0 147.035C0 167.247 16.3876 183.635 36.6 183.635C56.8146 183.635 73.2 167.247 73.2 147.035V128.735H109.8V146.989C109.8 147.008 109.798 147.021 109.798 147.035C109.798 167.247 126.185 183.635 146.398 183.635C166.61 183.635 182.998 167.247 182.998 147.035C182.998 126.823 166.612 110.44 146.4 110.435ZM146.4 18.9351C156.506 18.9351 164.7 27.129 164.7 37.2351C164.7 47.3413 156.506 55.5351 146.4 55.5351H128.1V37.2351C128.1 27.129 136.294 18.9351 146.4 18.9351ZM18.3 37.2351C18.3 27.129 26.4938 18.9351 36.6 18.9351C46.7062 18.9351 54.9 27.129 54.9 37.2351V55.5351H36.6C26.4938 55.5351 18.3 47.339 18.3 37.2351ZM36.6 165.335C26.4938 165.335 18.3 157.141 18.3 147.035C18.3 136.929 26.4938 128.735 36.6 128.735H54.9V147.035C54.9 157.141 46.7062 165.335 36.6 165.335ZM73.2 110.435V73.8351H109.8V110.435H73.2ZM146.4 165.335C136.294 165.335 128.1 157.141 128.1 147.035V128.735H146.398C156.504 128.735 164.698 136.929 164.698 147.035C164.698 157.141 156.506 165.335 146.4 165.335Z" fill="white"/>
</g>
</g>
<defs>
<clipPath id="clip0_1_21">
<rect width="183" height="184" fill="white"/>
</clipPath>
<clipPath id="clip1_1_21">
<rect width="183" height="183" fill="white" transform="translate(0 0.635132)"/>
</clipPath>
</defs>
</svg>
