<svg width="535" height="435" viewBox="0 0 535 435" fill="none" xmlns="http://www.w3.org/2000/svg">
<g clip-path="url(#clip0_1_27)">
<g clip-path="url(#clip1_1_27)">
<path d="M327.5 120H307.5V80H327.5C349.59 80 367.5 62.09 367.5 40C367.5 17.91 349.59 0 327.5 0C305.408 0 287.5 17.91 287.5 40V60H247.5V40C247.5 17.91 229.59 0 207.5 0C185.41 0 167.5 17.91 167.5 40C167.5 62.09 185.41 80 207.5 80H227.5V120H207.5C185.41 120 167.5 137.91 167.5 160C167.5 182.09 185.41 200 207.5 200C229.592 200 247.5 182.09 247.5 160V140H287.5V159.95C287.5 159.97 287.497 159.985 287.497 160C287.497 182.09 305.408 200 327.497 200C349.588 200 367.497 182.09 367.497 160C367.497 137.91 349.59 120.005 327.5 120ZM327.5 20C338.545 20 347.5 28.955 347.5 40C347.5 51.045 338.545 60 327.5 60H307.5V40C307.5 28.955 316.455 20 327.5 20ZM187.5 40C187.5 28.955 196.455 20 207.5 20C218.545 20 227.5 28.955 227.5 40V60H207.5C196.455 60 187.5 51.0425 187.5 40ZM207.5 180C196.455 180 187.5 171.045 187.5 160C187.5 148.955 196.455 140 207.5 140H227.5V160C227.5 171.045 218.545 180 207.5 180ZM247.5 120V80H287.5V120H247.5ZM327.5 180C316.455 180 307.5 171.045 307.5 160V140H327.497C338.542 140 347.497 148.955 347.497 160C347.497 171.045 338.545 180 327.5 180Z" fill="black"/>
</g>
<path d="M33.4852 304.218C36.3691 299.945 40.3211 296.474 45.3412 293.804C50.4681 291.133 56.2893 289.798 62.8048 289.798C70.3883 289.798 77.2242 291.667 83.3124 295.406C89.5075 299.144 94.3674 304.485 97.8921 311.427C101.524 318.263 103.339 326.221 103.339 335.3C103.339 344.379 101.524 352.443 97.8921 359.492C94.3674 366.435 89.5075 371.829 83.3124 375.674C77.2242 379.519 70.3883 381.442 62.8048 381.442C56.1825 381.442 50.3613 380.16 45.3412 377.597C40.4279 374.926 36.4759 371.509 33.4852 367.343V380H11.0549V261.44H33.4852V304.218ZM80.4285 335.3C80.4285 329.959 79.307 325.366 77.064 321.521C74.9278 317.569 72.0439 314.578 68.4123 312.549C64.8876 310.52 61.0424 309.505 56.8768 309.505C52.8179 309.505 48.9728 310.573 45.3412 312.709C41.8164 314.739 38.9325 317.729 36.6895 321.681C34.5533 325.633 33.4852 330.28 33.4852 335.62C33.4852 340.961 34.5533 345.607 36.6895 349.559C38.9325 353.511 41.8164 356.555 45.3412 358.691C48.9728 360.721 52.8179 361.735 56.8768 361.735C61.0424 361.735 64.8876 360.667 68.4123 358.531C72.0439 356.395 74.9278 353.351 77.064 349.399C79.307 345.447 80.4285 340.747 80.4285 335.3ZM142.069 305.019C144.953 300.319 148.691 296.634 153.284 293.964C157.984 291.294 163.325 289.958 169.306 289.958V313.51H163.378C156.328 313.51 150.988 315.166 147.356 318.477C143.832 321.788 142.069 327.556 142.069 335.78V380H119.639V291.24H142.069V305.019ZM195.789 280.666C191.837 280.666 188.526 279.438 185.856 276.981C183.292 274.418 182.011 271.267 182.011 267.528C182.011 263.79 183.292 260.692 185.856 258.236C188.526 255.672 191.837 254.39 195.789 254.39C199.741 254.39 202.999 255.672 205.562 258.236C208.233 260.692 209.568 263.79 209.568 267.528C209.568 271.267 208.233 274.418 205.562 276.981C202.999 279.438 199.741 280.666 195.789 280.666ZM206.844 291.24V380H184.414V291.24H206.844ZM223.238 335.3C223.238 326.328 225 318.37 228.525 311.427C232.156 304.485 237.07 299.144 243.265 295.406C249.46 291.667 256.349 289.798 263.932 289.798C269.7 289.798 275.201 291.08 280.435 293.643C285.668 296.1 289.834 299.411 292.932 303.577V261.44H315.682V380H292.932V366.862C290.154 371.242 286.256 374.766 281.236 377.437C276.216 380.107 270.394 381.442 263.772 381.442C256.295 381.442 249.46 379.519 243.265 375.674C237.07 371.829 232.156 366.435 228.525 359.492C225 352.443 223.238 344.379 223.238 335.3ZM293.092 335.62C293.092 330.173 292.024 325.526 289.887 321.681C287.751 317.729 284.867 314.739 281.236 312.709C277.604 310.573 273.706 309.505 269.54 309.505C265.374 309.505 261.529 310.52 258.004 312.549C254.48 314.578 251.596 317.569 249.353 321.521C247.217 325.366 246.148 329.959 246.148 335.3C246.148 340.64 247.217 345.34 249.353 349.399C251.596 353.351 254.48 356.395 258.004 358.531C261.636 360.667 265.481 361.735 269.54 361.735C273.706 361.735 277.604 360.721 281.236 358.691C284.867 356.555 287.751 353.564 289.887 349.719C292.024 345.767 293.092 341.067 293.092 335.62ZM372.356 289.798C378.979 289.798 384.8 291.133 389.82 293.804C394.84 296.367 398.792 299.732 401.676 303.897V291.24H424.266V380.641C424.266 388.865 422.611 396.182 419.3 402.59C415.988 409.106 411.022 414.233 404.4 417.971C397.777 421.816 389.766 423.739 380.367 423.739C367.763 423.739 357.403 420.802 349.285 414.927C341.274 409.053 336.735 401.042 335.667 390.895H357.937C359.112 394.954 361.622 398.158 365.467 400.508C369.419 402.964 374.172 404.193 379.726 404.193C386.242 404.193 391.529 402.217 395.588 398.265C399.646 394.419 401.676 388.545 401.676 380.641V366.862C398.792 371.028 394.787 374.499 389.66 377.276C384.64 380.053 378.872 381.442 372.356 381.442C364.88 381.442 358.044 379.519 351.849 375.674C345.654 371.829 340.74 366.435 337.109 359.492C333.584 352.443 331.822 344.379 331.822 335.3C331.822 326.328 333.584 318.37 337.109 311.427C340.74 304.485 345.6 299.144 351.688 295.406C357.883 291.667 364.773 289.798 372.356 289.798ZM401.676 335.62C401.676 330.173 400.608 325.526 398.472 321.681C396.335 317.729 393.451 314.739 389.82 312.709C386.188 310.573 382.29 309.505 378.124 309.505C373.958 309.505 370.113 310.52 366.588 312.549C363.064 314.578 360.18 317.569 357.937 321.521C355.801 325.366 354.732 329.959 354.732 335.3C354.732 340.64 355.801 345.34 357.937 349.399C360.18 353.351 363.064 356.395 366.588 358.531C370.22 360.667 374.065 361.735 378.124 361.735C382.29 361.735 386.188 360.721 389.82 358.691C393.451 356.555 396.335 353.564 398.472 349.719C400.608 345.767 401.676 341.067 401.676 335.62ZM528.685 333.698C528.685 336.902 528.471 339.786 528.044 342.349H463.156C463.69 348.758 465.933 353.778 469.885 357.41C473.837 361.041 478.697 362.857 484.465 362.857C492.796 362.857 498.724 359.279 502.249 352.122H526.442C523.878 360.667 518.965 367.717 511.702 373.271C504.439 378.718 495.52 381.442 484.946 381.442C476.401 381.442 468.71 379.573 461.875 375.834C455.145 371.989 449.858 366.595 446.013 359.653C442.275 352.71 440.406 344.699 440.406 335.62C440.406 326.434 442.275 318.37 446.013 311.427C449.752 304.485 454.985 299.144 461.714 295.406C468.443 291.667 476.187 289.798 484.946 289.798C493.384 289.798 500.914 291.614 507.536 295.246C514.265 298.877 519.446 304.058 523.077 310.787C526.816 317.409 528.685 325.046 528.685 333.698ZM505.453 327.289C505.347 321.521 503.264 316.928 499.205 313.51C495.146 309.986 490.179 308.223 484.305 308.223C478.751 308.223 474.051 309.932 470.206 313.35C466.467 316.661 464.171 321.307 463.317 327.289H505.453Z" fill="black"/>
</g>
<defs>
<clipPath id="clip0_1_27">
<rect width="535" height="435" fill="white"/>
</clipPath>
<clipPath id="clip1_1_27">
<rect width="200" height="200" fill="white" transform="translate(167.5)"/>
</clipPath>
</defs>
</svg>
