<svg width="768" height="240" viewBox="0 0 768 240" fill="none" xmlns="http://www.w3.org/2000/svg">
<g clip-path="url(#clip0_1_9)">
<g clip-path="url(#clip1_1_9)">
<path d="M146.4 137.435H128.1V100.835H146.4C166.612 100.835 183 84.4475 183 64.2351C183 44.0228 166.612 27.6351 146.4 27.6351C126.185 27.6351 109.8 44.0228 109.8 64.2351V82.5351H73.2V64.2351C73.2 44.0228 56.8123 27.6351 36.6 27.6351C16.3876 27.6351 0 44.0228 0 64.2351C0 84.4475 16.3876 100.835 36.6 100.835H54.9V137.435H36.6C16.3876 137.435 0 153.823 0 174.035C0 194.247 16.3876 210.635 36.6 210.635C56.8146 210.635 73.2 194.247 73.2 174.035V155.735H109.8V173.989C109.8 174.008 109.798 174.021 109.798 174.035C109.798 194.247 126.185 210.635 146.398 210.635C166.61 210.635 182.998 194.247 182.998 174.035C182.998 153.823 166.612 137.44 146.4 137.435ZM146.4 45.9351C156.506 45.9351 164.7 54.129 164.7 64.2351C164.7 74.3413 156.506 82.5351 146.4 82.5351H128.1V64.2351C128.1 54.129 136.294 45.9351 146.4 45.9351ZM18.3 64.2351C18.3 54.129 26.4938 45.9351 36.6 45.9351C46.7062 45.9351 54.9 54.129 54.9 64.2351V82.5351H36.6C26.4938 82.5351 18.3 74.339 18.3 64.2351ZM36.6 192.335C26.4938 192.335 18.3 184.141 18.3 174.035C18.3 163.929 26.4938 155.735 36.6 155.735H54.9V174.035C54.9 184.141 46.7062 192.335 36.6 192.335ZM73.2 137.435V100.835H109.8V137.435H73.2ZM146.4 192.335C136.294 192.335 128.1 184.141 128.1 174.035V155.735H146.398C156.504 155.735 164.698 163.929 164.698 174.035C164.698 184.141 156.506 192.335 146.4 192.335Z" fill="white"/>
</g>
<path d="M266.485 100.218C269.369 95.9453 273.321 92.4739 278.341 89.8037C283.468 87.1334 289.289 85.7983 295.805 85.7983C303.388 85.7983 310.224 87.6675 316.312 91.4058C322.507 95.1442 327.367 100.485 330.892 107.427C334.524 114.263 336.339 122.221 336.339 131.3C336.339 140.379 334.524 148.443 330.892 155.492C327.367 162.435 322.507 167.829 316.312 171.674C310.224 175.519 303.388 177.442 295.805 177.442C289.182 177.442 283.361 176.16 278.341 173.597C273.428 170.926 269.476 167.509 266.485 163.343V176H244.055V57.44H266.485V100.218ZM313.429 131.3C313.429 125.959 312.307 121.366 310.064 117.521C307.928 113.569 305.044 110.578 301.412 108.549C297.888 106.52 294.042 105.505 289.877 105.505C285.818 105.505 281.973 106.573 278.341 108.709C274.816 110.739 271.933 113.729 269.69 117.681C267.553 121.633 266.485 126.28 266.485 131.62C266.485 136.961 267.553 141.607 269.69 145.559C271.933 149.511 274.816 152.555 278.341 154.691C281.973 156.721 285.818 157.735 289.877 157.735C294.042 157.735 297.888 156.667 301.412 154.531C305.044 152.395 307.928 149.351 310.064 145.399C312.307 141.447 313.429 136.747 313.429 131.3ZM375.069 101.019C377.953 96.3191 381.691 92.6342 386.284 89.9639C390.984 87.2936 396.325 85.9585 402.306 85.9585V109.51H396.378C389.328 109.51 383.988 111.166 380.356 114.477C376.832 117.788 375.069 123.556 375.069 131.78V176H352.639V87.2402H375.069V101.019ZM428.789 76.6659C424.837 76.6659 421.526 75.4376 418.856 72.981C416.292 70.4175 415.011 67.2666 415.011 63.5282C415.011 59.7898 416.292 56.6923 418.856 54.2357C421.526 51.6722 424.837 50.3905 428.789 50.3905C432.741 50.3905 435.999 51.6722 438.562 54.2357C441.233 56.6923 442.568 59.7898 442.568 63.5282C442.568 67.2666 441.233 70.4175 438.562 72.981C435.999 75.4376 432.741 76.6659 428.789 76.6659ZM439.844 87.2402V176H417.414V87.2402H439.844ZM456.238 131.3C456.238 122.328 458 114.37 461.525 107.427C465.156 100.485 470.07 95.1442 476.265 91.4058C482.46 87.6675 489.349 85.7983 496.932 85.7983C502.7 85.7983 508.201 87.08 513.435 89.6435C518.668 92.1001 522.834 95.4112 525.932 99.5769V57.44H548.682V176H525.932V162.862C523.154 167.242 519.256 170.766 514.236 173.437C509.216 176.107 503.394 177.442 496.772 177.442C489.295 177.442 482.46 175.519 476.265 171.674C470.07 167.829 465.156 162.435 461.525 155.492C458 148.443 456.238 140.379 456.238 131.3ZM526.092 131.62C526.092 126.173 525.024 121.526 522.887 117.681C520.751 113.729 517.867 110.739 514.236 108.709C510.604 106.573 506.706 105.505 502.54 105.505C498.374 105.505 494.529 106.52 491.004 108.549C487.48 110.578 484.596 113.569 482.353 117.521C480.217 121.366 479.148 125.959 479.148 131.3C479.148 136.64 480.217 141.34 482.353 145.399C484.596 149.351 487.48 152.395 491.004 154.531C494.636 156.667 498.481 157.735 502.54 157.735C506.706 157.735 510.604 156.721 514.236 154.691C517.867 152.555 520.751 149.564 522.887 145.719C525.024 141.767 526.092 137.067 526.092 131.62ZM605.356 85.7983C611.979 85.7983 617.8 87.1334 622.82 89.8037C627.84 92.3671 631.792 95.7317 634.676 99.8973V87.2402H657.266V176.641C657.266 184.865 655.611 192.182 652.3 198.59C648.988 205.106 644.022 210.233 637.4 213.971C630.777 217.816 622.766 219.739 613.367 219.739C600.763 219.739 590.403 216.802 582.285 210.927C574.274 205.053 569.735 197.042 568.667 186.895H590.937C592.112 190.954 594.622 194.158 598.467 196.508C602.419 198.964 607.172 200.193 612.726 200.193C619.242 200.193 624.529 198.217 628.588 194.265C632.646 190.419 634.676 184.545 634.676 176.641V162.862C631.792 167.028 627.787 170.499 622.66 173.276C617.64 176.053 611.872 177.442 605.356 177.442C597.88 177.442 591.044 175.519 584.849 171.674C578.654 167.829 573.74 162.435 570.109 155.492C566.584 148.443 564.822 140.379 564.822 131.3C564.822 122.328 566.584 114.37 570.109 107.427C573.74 100.485 578.6 95.1442 584.688 91.4058C590.883 87.6675 597.773 85.7983 605.356 85.7983ZM634.676 131.62C634.676 126.173 633.608 121.526 631.472 117.681C629.335 113.729 626.451 110.739 622.82 108.709C619.188 106.573 615.29 105.505 611.124 105.505C606.958 105.505 603.113 106.52 599.588 108.549C596.064 110.578 593.18 113.569 590.937 117.521C588.801 121.366 587.732 125.959 587.732 131.3C587.732 136.64 588.801 141.34 590.937 145.399C593.18 149.351 596.064 152.395 599.588 154.531C603.22 156.667 607.065 157.735 611.124 157.735C615.29 157.735 619.188 156.721 622.82 154.691C626.451 152.555 629.335 149.564 631.472 145.719C633.608 141.767 634.676 137.067 634.676 131.62ZM761.685 129.698C761.685 132.902 761.471 135.786 761.044 138.349H696.156C696.69 144.758 698.933 149.778 702.885 153.41C706.837 157.041 711.697 158.857 717.465 158.857C725.796 158.857 731.724 155.279 735.249 148.122H759.442C756.878 156.667 751.965 163.717 744.702 169.271C737.439 174.718 728.52 177.442 717.946 177.442C709.401 177.442 701.71 175.573 694.875 171.834C688.145 167.989 682.858 162.595 679.013 155.653C675.275 148.71 673.406 140.699 673.406 131.62C673.406 122.434 675.275 114.37 679.013 107.427C682.752 100.485 687.985 95.1442 694.714 91.4058C701.443 87.6675 709.187 85.7983 717.946 85.7983C726.384 85.7983 733.914 87.614 740.536 91.2456C747.265 94.8772 752.446 100.058 756.077 106.787C759.816 113.409 761.685 121.046 761.685 129.698ZM738.453 123.289C738.347 117.521 736.264 112.928 732.205 109.51C728.146 105.986 723.179 104.223 717.305 104.223C711.751 104.223 707.051 105.932 703.206 109.35C699.467 112.661 697.171 117.307 696.317 123.289H738.453Z" fill="white"/>
</g>
<defs>
<clipPath id="clip0_1_9">
<rect width="768" height="240" fill="white"/>
</clipPath>
<clipPath id="clip1_1_9">
<rect width="183" height="183" fill="white" transform="translate(0 27.6351)"/>
</clipPath>
</defs>
</svg>
