<svg width="60" height="60" viewBox="0 0 60 60" fill="none" xmlns="http://www.w3.org/2000/svg">
  <!-- Background circle -->
  <circle cx="30" cy="30" r="30" fill="#0F766E"/>
  
  <!-- Inner circle for subtle depth -->
  <circle cx="30" cy="30" r="27" fill="#0F766E" stroke="#059669" stroke-width="1" opacity="0.3"/>
  
  <!-- Main M letter with Fraunces-inspired styling -->
  <g transform="translate(30, 30)">
    <!-- M letter paths -->
    <path d="M-12 -8 L-12 8 L-8 8 L-8 -2 L-4 -2 L-4 8 L0 8 L0 -2 L4 -2 L4 8 L8 8 L8 -8 L4 -8 L4 -4 L0 -4 L0 -8 L-4 -8 L-4 -4 L-8 -4 L-8 -8 Z" 
          fill="#FAFAF9" 
          stroke="#FAFAF9" 
          stroke-width="0.5"/>
    
    <!-- Accent mark for 'รก' -->
    <circle cx="9" cy="-10" r="1.2" fill="#FAFAF9"/>
    
    <!-- Subtle serif details -->
    <rect x="-13" y="-8" width="1" height="2" fill="#FAFAF9" opacity="0.8"/>
    <rect x="7" y="-8" width="1" height="2" fill="#FAFAF9" opacity="0.8"/>
  </g>
</svg>
